<svg id="Layer_1" data-name="Layer 1" xmlns="http://www.w3.org/2000/svg" viewBox="0 0 299.06 49.49"><defs><style>.cls-1{fill:#fff;}</style></defs><title>Cloudpermit_logo_RGB_white</title><path class="cls-1" d="M11.34,41.05A13.48,13.48,0,0,1,6,35.27a19.58,19.58,0,0,1-1.88-8.86A19.47,19.47,0,0,1,6,17.59a13.37,13.37,0,0,1,5.37-5.76,16.15,16.15,0,0,1,8.2-2,18,18,0,0,1,6.19,1,12.75,12.75,0,0,1,4.82,3l-1.68,3.75a16.43,16.43,0,0,0-4.5-2.71A13.27,13.27,0,0,0,19.55,14c-3.38,0-6,.82-7.8,3S9,22.36,9,26.41s.93,7.22,2.77,9.43,4.35,2.94,7.74,2.94a13.53,13.53,0,0,0,4.82-.85,16.52,16.52,0,0,0,4.5-2.72l1.74,3.85a12.89,12.89,0,0,1-4.82,3,18.27,18.27,0,0,1-6.19,1A16,16,0,0,1,11.34,41.05Z" transform="translate(-4.09 -3.39)"/><path class="cls-1" d="M35.9,9.89h4.57V43H35.9Z" transform="translate(-4.09 -3.39)"/><path class="cls-1" d="M50.08,41.87a9.92,9.92,0,0,1-3.95-4.16,13.56,13.56,0,0,1-1.4-6.31,13.66,13.66,0,0,1,1.4-6.32,9.88,9.88,0,0,1,3.95-4.19A11.83,11.83,0,0,1,56,19.43a11.7,11.7,0,0,1,5.89,1.46,9.9,9.9,0,0,1,4,4.19,13.65,13.65,0,0,1,1.39,6.32,13.56,13.56,0,0,1-1.39,6.31,9.94,9.94,0,0,1-4,4.16A11.7,11.7,0,0,1,56,43.33,11.83,11.83,0,0,1,50.08,41.87Zm10.78-4.3c1.13-1.4,1.69-3.45,1.69-6.17a9.61,9.61,0,0,0-1.71-6.12A5.82,5.82,0,0,0,56,23.13a6,6,0,0,0-4.89,2.15,9.49,9.49,0,0,0-1.74,6.12c0,2.72.58,4.77,1.72,6.17A5.92,5.92,0,0,0,56,39.68,5.9,5.9,0,0,0,60.86,37.57Z" transform="translate(-4.09 -3.39)"/><path class="cls-1" d="M91.21,20V43H86.59v-2.3c-.7,1.08-2.51,2.62-7.22,2.62q-8.31,0-8.32-9.23V20h4.57V34.05a6.29,6.29,0,0,0,1.17,4.19,4.46,4.46,0,0,0,3.54,1.34,5.63,5.63,0,0,0,4.4-1.85,8.46,8.46,0,0,0,1.86-5.43V20Z" transform="translate(-4.09 -3.39)"/><path class="cls-1" d="M117.44,9.89V43h-4.57V40.68a5.71,5.71,0,0,1-2.18,1.69,12.92,12.92,0,0,1-5.45,1,9.53,9.53,0,0,1-5.31-1.51A10.09,10.09,0,0,1,96.3,37.6,14.4,14.4,0,0,1,95,31.31a14.52,14.52,0,0,1,1.28-6.26,9.46,9.46,0,0,1,9-5.62,12.92,12.92,0,0,1,5.05.78,8.51,8.51,0,0,1,2.58,1.72v-12Zm-6.29,27.62a9.62,9.62,0,0,0,1.72-6.11,9.59,9.59,0,0,0-1.72-6.1,5.81,5.81,0,0,0-4.82-2.17,6,6,0,0,0-4.91,2.15,9.28,9.28,0,0,0-1.76,6,9.68,9.68,0,0,0,1.76,6.15,6.49,6.49,0,0,0,9.73,0Z" transform="translate(-4.09 -3.39)"/><path class="cls-1" d="M168.47,32c-1.76.05-16.33,0-16.33,0,.15,5.39,2.6,7.48,7.32,7.64a11,11,0,0,0,7.27-2.61l1.41,3.29a11.23,11.23,0,0,1-3.95,2.17,15.22,15.22,0,0,1-4.82.8q-5.53,0-8.68-3.17t-3.15-8.71a13.6,13.6,0,0,1,1.39-6.26,10.25,10.25,0,0,1,3.91-4.25,10.83,10.83,0,0,1,5.71-1.51,9.29,9.29,0,0,1,7.33,3q2.69,3,2.68,8.36A9.25,9.25,0,0,1,168.47,32Zm-14.08-7.63a7.49,7.49,0,0,0-2.1,4.44h12.2a7.11,7.11,0,0,0-1.78-4.46,5.46,5.46,0,0,0-4.07-1.53A6,6,0,0,0,154.39,24.41Z" transform="translate(-4.09 -3.39)"/><path class="cls-1" d="M186,19.75l-.08,4a7.92,7.92,0,0,0-2.7-.24c-2.11,0-3.76.57-4.73,1.9-1.42,1.92-1.58,5.07-1.58,7V43h-4.57V26.47c0-2.41,0-6.49,0-6.49h4.58v2.34c1.63-2.54,4.11-2.89,6.9-2.89A8.23,8.23,0,0,1,186,19.75Z" transform="translate(-4.09 -3.39)"/><path class="cls-1" d="M223.49,28.66V43h-4.61V28.89a7.24,7.24,0,0,0-1-4.34,3.9,3.9,0,0,0-3.35-1.26,4.78,4.78,0,0,0-4,1.82c-1.35,1.67-1.56,3.72-1.65,7.1V43h-4.62V28.89a7.24,7.24,0,0,0-1-4.34,3.84,3.84,0,0,0-3.32-1.25,5,5,0,0,0-4.07,1.83c-1.31,1.55-1.64,4.31-1.68,7.08V43h-4.57V20h4.57V22.3a7.69,7.69,0,0,1,2.19-1.83,10.36,10.36,0,0,1,4.85-1c3.54,0,5.89,1.35,7,3.83a7.15,7.15,0,0,1,2.67-2.77,10.47,10.47,0,0,1,5-1.06Q223.5,19.43,223.49,28.66Z" transform="translate(-4.09 -3.39)"/><path class="cls-1" d="M232.94,9.93v4.84h-4.57V9.93ZM228.37,20h4.57V43h-4.57Z" transform="translate(-4.09 -3.39)"/><path class="cls-1" d="M245.69,23.54V35.11a4.52,4.52,0,0,0,1,3.35,4,4,0,0,0,2.86,1,5.68,5.68,0,0,0,.59,0v3.82a13.48,13.48,0,0,1-1.59.09,7.38,7.38,0,0,1-5.53-2,8,8,0,0,1-2-5.85V23.54h-4.48V20h4.48V9.89h4.62V20h4.46v3.57Z" transform="translate(-4.09 -3.39)"/><path class="cls-1" d="M272.71,49.84a34.2,34.2,0,0,1-13.06-2.67l-.79-.32,7.57-7.54a21.37,21.37,0,0,1,.39-29.69,21.28,21.28,0,1,1,30.1,30.1,34.09,34.09,0,0,1-24.11,10.12Zm-7-4.58a29.36,29.36,0,0,0,7,.85,30.42,30.42,0,0,0,21.58-9,17.56,17.56,0,1,0-24.83,0l2.23,2.23Z" transform="translate(-4.09 -3.39)"/><path class="cls-1" d="M281.87,34.6a9.93,9.93,0,1,1,9.94-9.93,9.93,9.93,0,0,1-9.94,9.93" transform="translate(-4.09 -3.39)"/><path class="cls-1" d="M122.22,52.88V19.76h4.57v2.33A5.71,5.71,0,0,1,129,20.4a12.88,12.88,0,0,1,5.45-1,9.5,9.5,0,0,1,5.3,1.51,10,10,0,0,1,3.63,4.22,14.37,14.37,0,0,1,1.31,6.29,14.52,14.52,0,0,1-1.28,6.26,9.5,9.5,0,0,1-9,5.62,12.74,12.74,0,0,1-5-.79,8.09,8.09,0,0,1-2.58-1.71v12Zm6.28-27.62a9.65,9.65,0,0,0-1.71,6.1,9.63,9.63,0,0,0,1.71,6.1,5.8,5.8,0,0,0,4.82,2.18,6,6,0,0,0,4.92-2.15,9.3,9.3,0,0,0,1.76-6,9.68,9.68,0,0,0-1.76-6.15,6.5,6.5,0,0,0-9.74,0Z" transform="translate(-4.09 -3.39)"/></svg>