<?xml version="1.0" encoding="utf-8"?>
<!-- Generator: Adobe Illustrator 26.0.2, SVG Export Plug-In . SVG Version: 6.00 Build 0)  -->
<svg version="1.1" id="Layer_1" xmlns="http://www.w3.org/2000/svg" xmlns:xlink="http://www.w3.org/1999/xlink" x="0px" y="0px"
	 viewBox="0 0 256.6 80.74" style="enable-background:new 0 0 256.6 80.74;" xml:space="preserve">
<style type="text/css">
	.st0{fill:#FFFFFF;}
	.st1{fill:#82C1C9;}
</style>
<g>
	<path class="st0" d="M6.84,10.64h4.66v27.87h15.64v4.32H6.84V10.64z"/>
	<path class="st0" d="M200.83,31.87c-1.75,0.05-16.24,0-16.24,0c0.15,5.36,2.59,7.43,7.29,7.59c2.64,0.09,5.05-0.86,7.23-2.59
		l1.41,3.27c-1.03,0.91-2.34,1.63-3.93,2.16c-1.59,0.53-3.19,0.8-4.79,0.8c-3.67,0-6.55-1.05-8.64-3.16
		c-2.09-2.11-3.14-4.99-3.14-8.66c0-2.33,0.46-4.41,1.39-6.23c0.92-1.82,2.22-3.23,3.89-4.23c1.67-1,3.56-1.5,5.68-1.5
		c3.09,0,5.52,1,7.29,3c1.77,2,2.66,4.77,2.66,8.32C200.92,30.65,200.92,31.3,200.83,31.87z M186.83,24.29
		c-1.09,1.03-1.79,2.5-2.09,4.41h12.14c-0.18-1.94-0.77-3.42-1.77-4.43c-1-1.01-2.35-1.52-4.05-1.52
		C189.33,22.74,187.92,23.26,186.83,24.29z"/>
	<path class="st0" d="M172.75,23.33v11.55c0,1.58,0.34,2.7,1.03,3.36c0.69,0.65,1.64,0.98,2.85,0.98c0.2,0,0.39-0.01,0.59-0.02
		c0,1.37,0,2.7,0,3.81c-0.51,0.06-1.04,0.1-1.6,0.1c-2.37,0-4.22-0.67-5.53-2.01c-1.31-1.34-1.96-3.29-1.96-5.84V23.33h-4.47v-3.56
		h4.47l0-10.08h4.61l0,10.08l4.47,0.01v3.56L172.75,23.33z"/>
	<path class="st0" d="M139.38,9.54v4.85h-4.57V9.54H139.38z M134.81,19.8h4.57v22.99h-4.57V19.8z"/>
	<path class="st0" d="M55.66,52.59l0-32.83h4.53l0,2.31c0.13-0.29,0.94-1.06,2.16-1.67c1.05-0.53,2.9-0.96,5.4-0.96
		c1.96,0,3.71,0.5,5.25,1.5c1.54,1,2.74,2.39,3.6,4.19c0.86,1.8,1.29,3.87,1.29,6.23c0,2.36-0.42,4.42-1.27,6.21
		c-0.84,1.78-2.03,3.15-3.56,4.12c-1.52,0.97-3.3,1.45-5.32,1.45c-1.7,0-3.62-0.14-5.01-0.78c-1.05-0.48-2-1.1-2.55-1.7l-0.01,11.93
		L55.66,52.59z M61.88,25.22c-1.13,1.43-1.7,3.45-1.7,6.05c0,2.6,0.57,4.61,1.7,6.05c1.13,1.43,2.73,2.15,4.78,2.15
		c2.08,0,3.71-0.71,4.87-2.13c1.16-1.42,1.74-3.41,1.74-5.98c0-2.6-0.58-4.63-1.74-6.09c-1.16-1.46-2.77-2.2-4.82-2.2
		C64.63,23.07,63.02,23.79,61.88,25.22z"/>
	<path class="st0" d="M108.24,52.55l0-32.83h4.53l0,2.31c0.13-0.29,0.94-1.06,2.16-1.67c1.05-0.53,2.9-0.96,5.4-0.96
		c1.96,0,3.71,0.5,5.25,1.5c1.54,1,2.74,2.39,3.6,4.19c0.86,1.8,1.29,3.87,1.29,6.23c0,2.36-0.42,4.42-1.27,6.21
		c-0.84,1.78-2.03,3.15-3.56,4.12c-1.52,0.97-3.3,1.45-5.32,1.45c-1.7,0-3.62-0.14-5.01-0.78c-1.05-0.48-2-1.1-2.55-1.7l-0.01,11.93
		L108.24,52.55z M114.47,25.18c-1.13,1.43-1.7,3.45-1.7,6.05c0,2.6,0.57,4.61,1.7,6.05c1.13,1.43,2.73,2.15,4.78,2.15
		c2.08,0,3.71-0.71,4.87-2.13c1.16-1.42,1.74-3.41,1.74-5.98c0-2.6-0.58-4.63-1.74-6.09c-1.16-1.46-2.77-2.2-4.82-2.2
		C117.21,23.03,115.6,23.75,114.47,25.18z"/>
	<path class="st0" d="M98.99,42.79L99,40.68c-0.55,0.6-1.5,1.22-2.55,1.7c-1.39,0.64-3.31,0.78-5.01,0.78
		c-2.02,0-3.8-0.48-5.32-1.45c-1.53-0.97-2.71-2.34-3.56-4.12c-0.85-1.78-1.27-3.85-1.27-6.21c0-2.36,0.43-4.43,1.29-6.23
		c0.86-1.8,2.06-3.19,3.6-4.19c1.54-1,3.29-1.5,5.25-1.5c2.5,0,4.35,0.43,5.4,0.96c1.22,0.61,2.04,1.38,2.16,1.67l0-2.31h4.53
		l-0.02,23L98.99,42.79z M92.48,23.09c-2.05,0-3.66,0.73-4.82,2.2c-1.16,1.46-1.74,3.49-1.74,6.09c0,2.57,0.58,4.56,1.74,5.98
		c1.16,1.42,2.79,2.13,4.87,2.13c2.05,0,3.65-0.72,4.78-2.15c1.13-1.43,1.7-3.45,1.7-6.05c0-2.6-0.57-4.61-1.7-6.05
		C96.17,23.81,94.56,23.09,92.48,23.09z"/>
	<path class="st0" d="M50.94,19.83v23.03l-4.62,0v-2.3c-0.7,1.08-2.51,2.62-7.22,2.62c-5.55,0-8.32-3.08-8.32-9.23V19.83h4.57V33.9
		c0,1.89,0.39,3.28,1.17,4.18c0.78,0.9,1.96,1.35,3.54,1.35c1.89,0,3.26-0.64,4.4-1.86c1.14-1.22,1.86-3.41,1.86-5.42V19.83H50.94z"
		/>
	<path class="st0" d="M160.1,32.23c-1.04-1.07-2.55-1.82-4.54-2.24l-3.8-0.9c-1.08-0.27-1.89-0.59-2.46-0.94
		c-0.1-0.08-0.21-0.15-0.3-0.23c-0.51-0.48-0.77-1.11-0.77-1.9c0-0.99,0.41-1.77,1.22-2.33c0.81-0.56,1.96-0.84,3.44-0.84
		c2.44,0,4.52,0.68,6.72,2.43l1.44-3.2c-0.78-0.74-2.06-1.47-3.52-1.99c-1.46-0.51-3.01-0.77-4.63-0.77c-2.71,0-4.89,0.63-6.53,1.9
		c-1.64,1.27-2.46,2.92-2.46,4.97c0,1.6,0.52,2.93,1.56,4c1.04,1.07,2.55,1.82,4.54,2.24l4.11,0.95c1.12,0.27,1.93,0.65,2.44,1.13
		c0.51,0.48,0.77,1.11,0.77,1.9c0,0.99-0.41,1.77-1.22,2.33c-0.81,0.56-1.96,0.84-3.44,0.84c-2.44,0-4.76-0.87-6.96-2.62l-1.4,3.21
		c1.03,0.93,2.27,1.66,3.73,2.17c1.46,0.51,3.01,0.77,4.63,0.77c2.71,0,4.89-0.63,6.53-1.9c1.64-1.27,2.46-2.92,2.46-4.97
		C161.66,34.64,161.14,33.3,160.1,32.23z"/>
	<g>
		<path class="st0" d="M222.17,49.62c-4.37,0-8.76-0.9-13.06-2.67l-0.79-0.32l7.57-7.54c-7.88-8.31-7.73-21.57,0.4-29.69
			c4.02-4.02,9.37-6.23,15.05-6.23c5.69,0,11.03,2.21,15.05,6.23c4.02,4.02,6.23,9.36,6.23,15.05c0,5.68-2.21,11.03-6.23,15.05
			c-6.49,6.49-15.06,10.09-24.11,10.12H222.17z M215.19,45.04c2.32,0.57,4.67,0.86,6.98,0.86c8.15-0.03,15.79-3.23,21.58-9.03
			c6.85-6.85,6.85-17.99,0-24.83c-3.32-3.32-7.73-5.14-12.42-5.14c-4.69,0-9.1,1.83-12.42,5.14c-3.31,3.31-5.13,7.72-5.13,12.42
			s1.82,9.11,5.13,12.42l2.24,2.24L215.19,45.04z"/>
		<path class="st0" d="M231.33,34.39c-5.49,0-9.93-4.45-9.93-9.93c0-5.49,4.45-9.93,9.93-9.93c5.49,0,9.93,4.45,9.93,9.93
			C241.27,29.94,236.82,34.39,231.33,34.39"/>
	</g>
</g>
<g>
	<path class="st1" d="M104.96,75.15c0.57,0.1,1.1,0.15,1.58,0.15c0.75,0,1.26-0.19,1.54-0.57c0.28-0.38,0.42-1.06,0.42-2.02V57.49
		h2.29v15.25c0,1.57-0.29,2.71-0.88,3.43c-0.59,0.72-1.57,1.08-2.95,1.08c-0.67,0-1.34-0.06-2-0.18V75.15z"/>
	<path class="st1" d="M123.88,62.06v11.09h-2.16V71.3c-0.35,0.65-0.84,1.14-1.45,1.49c-0.62,0.34-1.31,0.52-2.09,0.52
		c-2.67,0-4-1.48-4-4.44v-6.8h2.2v6.78c0,0.91,0.19,1.58,0.56,2.01c0.37,0.43,0.94,0.65,1.7,0.65c0.91,0,1.64-0.29,2.19-0.88
		c0.55-0.59,0.83-1.36,0.83-2.33v-6.23H123.88z"/>
	<path class="st1" d="M127.36,56.96h2.2v16.19h-2.2V56.96z"/>
	<path class="st1" d="M140.54,73.15l-5.3-5.24v5.24h-2.2V56.96h2.2v10.12l4.93-4.99h2.75l-5.3,5.32l5.76,5.74H140.54z"/>
	<path class="st1" d="M147.42,57.22v2.33h-2.57v-2.33H147.42z M145.05,62.06h2.2v11.09h-2.2V62.06z"/>
	<path class="st1" d="M158.93,62.53c0.75,0.48,1.33,1.17,1.75,2.05c0.42,0.88,0.63,1.89,0.63,3.04s-0.21,2.15-0.62,3
		c-0.41,0.86-0.99,1.52-1.74,1.99s-1.61,0.7-2.57,0.7c-0.85,0-1.59-0.18-2.23-0.54c-0.64-0.36-1.12-0.88-1.44-1.55v6.69h-2.2V65.19
		c0-1.16-0.06-2.2-0.18-3.12h2.07l0.22,2.05c0.29-0.73,0.77-1.3,1.43-1.71c0.66-0.4,1.44-0.6,2.33-0.6
		C157.33,61.8,158.18,62.04,158.93,62.53z M158.2,70.51c0.56-0.69,0.84-1.66,0.84-2.9c0-1.26-0.28-2.25-0.84-2.96
		s-1.33-1.07-2.33-1.07c-1.03,0-1.81,0.34-2.35,1.03c-0.54,0.69-0.81,1.67-0.81,2.95s0.28,2.26,0.83,2.95
		c0.55,0.69,1.33,1.03,2.34,1.03C156.87,71.55,157.65,71.2,158.2,70.51z"/>
	<path class="st1" d="M174.26,62.06v11.09h-2.2v-1.89c-0.32,0.66-0.8,1.17-1.44,1.52c-0.64,0.35-1.38,0.53-2.23,0.53
		c-0.98,0-1.84-0.23-2.58-0.7c-0.74-0.47-1.32-1.13-1.73-1.99c-0.41-0.86-0.62-1.86-0.62-3s0.21-2.16,0.63-3.04
		c0.42-0.88,1-1.56,1.75-2.05c0.75-0.48,1.6-0.73,2.55-0.73c0.85,0,1.59,0.18,2.22,0.54s1.11,0.87,1.45,1.53v-1.8H174.26z
		 M171.24,70.5c0.55-0.7,0.83-1.68,0.83-2.94c0-1.28-0.28-2.26-0.83-2.95c-0.55-0.69-1.33-1.03-2.34-1.03c-1,0-1.78,0.36-2.34,1.07
		c-0.57,0.71-0.85,1.7-0.85,2.96c0,1.25,0.28,2.21,0.85,2.9c0.56,0.69,1.35,1.03,2.36,1.03C169.92,71.55,170.69,71.2,171.24,70.5z"
		/>
	<path class="st1" d="M187.4,66.24v6.91h-2.22v-6.78c0-0.97-0.19-1.67-0.56-2.11s-0.97-0.66-1.79-0.66c-0.94,0-1.69,0.29-2.25,0.88
		c-0.56,0.59-0.85,1.37-0.85,2.35v6.31h-2.2v-7.96c0-1.16-0.06-2.2-0.18-3.12h2.07l0.2,1.91c0.35-0.7,0.86-1.24,1.53-1.62
		c0.67-0.37,1.43-0.56,2.28-0.56C186.07,61.8,187.4,63.28,187.4,66.24z"/>
	<path class="st1" d="M192.48,72.6c-0.82-0.47-1.46-1.14-1.9-2s-0.67-1.88-0.67-3.04s0.22-2.17,0.67-3.05s1.08-1.54,1.9-2.01
		c0.82-0.47,1.77-0.7,2.86-0.7c1.07,0,2.02,0.23,2.84,0.7c0.82,0.47,1.46,1.14,1.9,2.01s0.67,1.89,0.67,3.05s-0.22,2.17-0.67,3.04
		s-1.08,1.53-1.9,2c-0.82,0.47-1.77,0.7-2.84,0.7C194.25,73.31,193.3,73.07,192.48,72.6z M197.67,70.53
		c0.54-0.67,0.81-1.66,0.81-2.97c0-1.28-0.27-2.26-0.83-2.95c-0.55-0.69-1.32-1.03-2.32-1.03c-1.01,0-1.8,0.34-2.35,1.03
		c-0.56,0.69-0.84,1.67-0.84,2.95c0,1.31,0.28,2.3,0.83,2.97c0.55,0.67,1.33,1.01,2.34,1.01C196.34,71.55,197.13,71.21,197.67,70.53
		z"/>
</g>
</svg>
