<?xml version="1.0" encoding="utf-8"?>
<!-- Generator: Adobe Illustrator 22.0.0, SVG Export Plug-In . SVG Version: 6.00 Build 0)  -->
<svg version="1.1" id="Layer_1" xmlns="http://www.w3.org/2000/svg" xmlns:xlink="http://www.w3.org/1999/xlink" x="0px" y="0px"
	 viewBox="0 0 164 36" style="enable-background:new 0 0 164 36;" xml:space="preserve">
<style type="text/css">
	.st0{fill:#FFFFFF;}
	.st1{fill:#F7AC2E;}
</style>
<g>
	<path class="st0" d="M155,10v5h7v2h-7v5h9v2h-11V8h11v2H155z M43,8h-2v16h10v-2h-8V8z M117,24h2V8h-2V24z M138,10h5v14h2V10h5V8
		h-12V10z M64,18c0,2.2-1.8,4-4,4s-4-1.8-4-4V8h-2v10c0,3.3,2.7,6,6,6s6-2.7,6-6V8h-2V18z M114,14c0,3.3-2.7,6-6,6h-4v4h-2V8h6
		C111.3,8,114,10.7,114,14z M112,14c0-2.2-1.8-4-4-4h-4v8h4C110.2,18,112,16.2,112,14z M82,14c0,3.3-2.7,6-6,6h-4v4h-2V8h6
		C79.3,8,82,10.7,82,14z M80,14c0-2.2-1.8-4-4-4h-4v8h4C78.2,18,80,16.2,80,14z M92.4,8L99,24h-2.2l-1.7-4h-8.4L85,24h-2l6.6-16
		H92.4z M94.3,18L91,9.9L87.6,18H94.3z M129,9.5c2.5,0,4.5,1.3,4.5,3h2c0-2.8-2.9-5-6.5-5s-6.5,2.2-6.5,5c0,3.3,3.5,4,6.3,4.5
		c2.9,0.5,4.7,1,4.7,2.5c0,1.7-2,3-4.5,3s-4.5-1.3-4.5-3h-2c0,2.8,2.9,5,6.5,5c3.6,0,6.5-2.2,6.5-5c0-3.3-3.5-4-6.3-4.5
		c-2.9-0.5-4.7-1-4.7-2.5C124.5,10.8,126.5,9.5,129,9.5z"/>
	<path class="st1" d="M17,2c3.7,0,7.3,1.5,9.9,4.1c5.5,5.5,5.5,14.3,0,19.8C22.3,30.5,16.3,33,10,33H9.9c-2.1,0-4.2-0.3-6.2-0.9
		l4.8-4.8l-1.4-1.4c-5.5-5.5-5.5-14.3,0-19.8C9.7,3.5,13.3,2,17,2 M17,0C12.9,0,8.8,1.6,5.7,4.7c-6.2,6.2-6.2,16.4,0,22.6L0,33
		c3.2,1.3,6.5,2,9.9,2H10c6.6,0,13.3-2.6,18.3-7.7c6.2-6.2,6.2-16.4,0-22.6C25.2,1.6,21.1,0,17,0L17,0z M25,16c0-4.4-3.6-8-8-8
		s-8,3.6-8,8s3.6,8,8,8S25,20.4,25,16z"/>
	<path class="st1" d="M58,34h4v1h-5v-8h1V34z M71.5,35h1v-8h-1V35z M54,32c0,1.1-0.9,2-2,2s-2-0.9-2-2v-5h-1v5c0,1.7,1.3,3,3,3
		s3-1.3,3-3v-5h-1V32z M46,32c0,1.1-0.9,2-2,2s-2-0.9-2-2h-1c0,1.7,1.3,3,3,3s3-1.3,3-3v-5h-1V32z M80.5,30c0,1.7-1.3,3-3,3h-2v2h-1
		v-8h3C79.2,27,80.5,28.3,80.5,30z M79.5,30c0-1.1-0.9-2-2-2h-2v4h2C78.6,32,79.5,31.1,79.5,30z M85.7,27l3.3,8h-1.1l-0.8-2h-4.2
		l-0.8,2H81l3.3-8H85.7z M86.7,32L85,28l-1.7,4H86.7z M66,31l4-4h-1.4l-4.1,4.1V27h-1v8h1v-2.5l0.8-0.8l3.3,3.3H70L66,31z
		 M102.2,27.8c-1.8,0-3.2,1.5-3.2,3.2s1.5,3.2,3.2,3.2s3.2-1.5,3.2-3.2S104,27.8,102.2,27.8 M102.2,26.8c2.3,0,4.2,1.9,4.2,4.2
		s-1.9,4.2-4.2,4.2c-2.3,0-4.2-1.9-4.2-4.2S99.9,26.8,102.2,26.8L102.2,26.8z M95.5,27v6.5L91.8,27h-1.3v8h1v-6.5l3.7,6.5h1.3v-8
		H95.5z"/>
</g>
</svg>
