<?xml version="1.0" encoding="utf-8"?>
<!-- Generator: Adobe Illustrator 19.1.0, SVG Export Plug-In . SVG Version: 6.00 Build 0)  -->
<!DOCTYPE svg PUBLIC "-//W3C//DTD SVG 1.1//EN" "http://www.w3.org/Graphics/SVG/1.1/DTD/svg11.dtd">
<svg version="1.1" xmlns="http://www.w3.org/2000/svg" xmlns:xlink="http://www.w3.org/1999/xlink" x="0px" y="0px" width="171px"
	 height="32px" viewBox="0 0 171 32" style="enable-background:new 0 0 171 32;" xml:space="preserve">
<style type="text/css">
	.st0{fill:#DDDDDD;}
	.st1{fill:#DF3215;}
	.st2{fill:#FFFFFF;}
	.st3{fill:#555555;}
	.st4{fill:#2CA92C;}
	.st5{fill:#333333;}
	.st6{fill:#F39129;}
	.st7{fill:#F6F6F6;}
	.st8{fill:#BBBBBB;}
	.st9{fill:#F7AC2E;}
	.st10{fill:#EEEEEE;}
	.st11{fill-rule:evenodd;clip-rule:evenodd;fill:#F39129;}
	.st12{display:none;}
	.st13{display:inline;}
	.st14{fill:#FBC732;}
	.st15{fill:#999999;}
	.st16{fill:#61B72F;}
	.st17{fill:#E7541D;}
	.st18{fill:#0FA8F7;}
	.st19{fill-rule:evenodd;clip-rule:evenodd;fill:#0FA8F7;}
	.st20{display:inline;fill:#EEEEEE;}
	.st21{display:inline;fill:#F6F6F6;}
	.st22{display:inline;fill:#DDDDDD;}
	.st23{display:inline;fill:#555555;}
	.st24{display:inline;fill:#FFFFFF;}
	.st25{display:inline;fill:#BBBBBB;}
	.st26{display:inline;fill:#2CA92C;}
	.st27{display:inline;fill:#F39129;}
	.st28{fill:#0FCFF7;}
	.st29{fill:#0FBBF7;}
	.st30{display:inline;fill:#FBC732;}
	.st31{display:inline;fill:#999999;}
	.st32{fill:#FFE236;}
	.st33{fill:#E5DB35;}
	.st34{fill:#CAD434;}
	.st35{fill:#B0CD32;}
	.st36{fill:#96C531;}
	.st37{fill:#7BBE30;}
	.st38{fill:#46B02D;}
	.st39{fill:#11A22A;}
	.st40{fill:#EF7625;}
	.st41{fill:#EB6521;}
	.st42{fill:#E34319;}
	.st43{fill:#DB2111;}
	.st44{fill:#D7100D;}
	.st45{fill:#111111;}
	.st46{fill:#222222;}
	.st47{fill:#444444;}
	.st48{fill:#666666;}
	.st49{fill:#777777;}
	.st50{fill:#888888;}
	.st51{fill:#AAAAAA;}
	.st52{fill:#CCCCCC;}
	.st53{fill:#02B2A5;}
	.st54{fill:#04C3AF;}
	.st55{fill:#05D3B9;}
	.st56{fill:#07E3C2;}
	.st57{fill:#08F4CC;}
	.st58{fill:#CF5BE8;}
	.st59{fill:#DA6DED;}
	.st60{fill:#E480F2;}
	.st61{fill:#EF92F7;}
	.st62{fill:#FAA4FC;}
	.st63{fill:#0FE2F7;}
	.st64{fill:#0F94F7;}
	.st65{display:inline;fill:none;stroke:#00FFFF;stroke-miterlimit:10;}
</style>
<g id="Kartta">
</g>
<g id="Liite">
</g>
<g id="Suunnitelmat_ja_liitteet">
</g>
<g id="Osapuolet">
</g>
<g id="Hakemuksen_tiedot">
	<g>
		<defs>
			<rect id="SVGID_3_" x="-1376" y="100" width="270" height="270"/>
		</defs>
		<clipPath id="SVGID_2_">
			<use xlink:href="#SVGID_3_"  style="overflow:visible;"/>
		</clipPath>
		<g style="clip-path:url(#SVGID_2_);">
			
				<image style="overflow:visible;" width="1920" height="1200" xlink:href="../service/+matsku/Screen Shot 2015-02-20 at 16.45.43 (2).png"  transform="matrix(1.2828 0 0 1.2828 -1867 -152)">
			</image>
		</g>
	</g>
</g>
<g id="Hankkeet">
</g>
<g id="Keskustelu">
</g>
<g id="Omat_tiedot">
</g>
<g id="Uusi_hanke">
</g>
<g id="Tervetuloa">
</g>
<g id="footer">
	<g id="footer_3_">
	</g>
	<g id="footer_2_">
	</g>
	<g id="footer_1_">
	</g>
</g>
<g id="header">
	<g id="header_2_">
	</g>
	<g id="header_1_">
		<g>
			<polygon class="st2" points="74,8 72,8 72,24 82,24 82,22 74,22 			"/>
			<rect x="101" y="8" class="st2" width="2" height="16"/>
			<path class="st2" d="M66,18c0,2.2-1.8,4-4,4c-2.2,0-4-1.8-4-4V8h-2v10c0,3.3,2.7,6,6,6c3.3,0,6-2.7,6-6V8h-2V18z"/>
			<path class="st2" d="M50,18c0,2.2-1.8,4-4,4s-4-1.8-4-4h-2c0,3.3,2.7,6,6,6c3.3,0,6-2.7,6-6V8h-2V18z"/>
			<path class="st2" d="M113,8h-6v16h2v-4h4c3.3,0,6-2.7,6-6C119,10.7,116.3,8,113,8z M113,18h-4v-8h4c2.2,0,4,1.8,4,4
				C117,16.2,115.2,18,113,18z"/>
			<path class="st2" d="M126.6,8L120,24h2.2l1.7-4h8.4l1.7,4h2.2l-6.6-16H126.6z M124.7,18l3.3-8.1l3.3,8.1H124.7z"/>
			<g>
				<path class="st29" d="M22.8,14.8c1.6-1.6,1.6-4.1,0-5.7c-1.6-1.6-4.1-1.6-5.7,0l0,0l-5.7-5.7C9.2,5.9,8,8.9,8,12v10H5l0,0
					c-2.8,0-5,2.2-5,5c0,2.8,2.2,5,5,5s5-2.2,5-5v-3h10v0c3.1,0,6.1-1.2,8.5-3.5L22.8,14.8L22.8,14.8z M18.6,10.6
					c0.8-0.8,2-0.8,2.8,0c0.8,0.8,0.8,2,0,2.8L18.6,10.6z M8,27c0,1.7-1.3,3-3,3c-1.7,0-3-1.3-3-3c0-1.7,1.3-3,3-3l0,0h3V27z M20,22
					L20,22l-10,0V12h0c0-1.9,0.5-3.8,1.6-5.5l13.9,13.9C23.9,21.4,22,22,20,22z"/>
				<path class="st29" d="M26,12h2c0-2-0.8-4.1-2.3-5.7C24.1,4.8,22,4,20,4v2c1.5,0,3.1,0.6,4.2,1.8C25.4,8.9,26,10.5,26,12z"/>
				<path class="st29" d="M32,12c0-6.6-5.4-12-12-12v2c5.5,0,10,4.5,10,10v0H32z"/>
			</g>
			<polygon class="st2" points="90,16 98,8 95.2,8 87,16.2 87,8 85,8 85,24 87,24 87,19 88.6,17.4 95.2,24 98,24 			"/>
			<path class="st2" d="M162.5,9.5c3.6,0,6.5,2.9,6.5,6.5s-2.9,6.5-6.5,6.5S156,19.6,156,16S158.9,9.5,162.5,9.5 M162.5,7.5
				c-4.7,0-8.5,3.8-8.5,8.5s3.8,8.5,8.5,8.5s8.5-3.8,8.5-8.5S167.2,7.5,162.5,7.5L162.5,7.5z"/>
			<polygon class="st2" points="149,8 149,20.9 141.5,8 139,8 139,24 141,24 141,11.1 148.5,24 151,24 151,8 			"/>
		</g>
	</g>
</g>
<g id="css">
	<g id="Lupapiste_navigaatio">
	</g>
</g>
<g id="grid" class="st12">
	<rect x="124" class="st65" width="270" height="6600"/>
	<rect x="124" class="st65" width="368" height="6600"/>
	<rect class="st65" width="100" height="6600"/>
</g>
</svg>
